<svg preserveAspectRatio="xMidYMid meet" data-bbox="0.178 0 126.658 34" xmlns="http://www.w3.org/2000/svg" viewBox="0.178 0 126.658 34" data-type="color" role="img" aria-labelledby="svgcid-r2g4kp-du6k3y"><title id="svgcid-r2g4kp-du6k3y"></title>
    <g>
        <path fill="#F00C27" d="M3.2 16.704c2.63-4.786 8.732-14.956 9.194-15.677.463-.72 1.16-1.76 1.834 0 .675 1.76.099 4.778-1.857 8.252-1.955 3.473-7.404 11.467-8.397 15.942-.698 3.14-.933 5.665.462 6.47 1.395.803 4.98.5 8.572-5.484 3.593-5.984 13.21-23.602 14.007-24.975.796-1.365 1.614-1.896 1.947-.007.334 1.888.281 3.284-1.114 6.332-1.394 3.05-8.572 16.23-11.05 19.84-2.479 3.61-7.246 8.662-13.446 5.72-6.207-2.936-1.66-13.652-.151-16.413z" data-color="1"></path>
        <path fill="#F00C27" d="M24.506 23.44c1.06-2.155 5.335-9.345 6.222-10.816.887-1.471 1.797-.94 1.887.796.091 1.737-.25 3.588-.25 3.588s2.585-2.761 4.965-4.073c2.38-1.312 3.668-1.236 4.684.523 1.015 1.76.538 3.542-1.069 6.272-1.614 2.73-2.645 4.46-3.547 6.333-.902 1.873-2.213 6.022.515 5.931 2.729-.083 5.442-4.338 6.405-6.06.97-1.721 4.813-9.139 5.487-10.345.667-1.206 1.054-1.827 1.508-2.472.455-.645 1.736-1.896 2.153 1.395.303 2.412-.515 3.42-1.895 6.022 0 0-1.932 3.398-2.577 4.665-.644 1.266-3.138 6.772-.235 6.795 2.903.023 5.958-5.18 6.73-6.902.774-1.721 1.266-.151 1.312.539.045.69-.068 2.366-1.85 4.406-1.788 2.04-3.63 3.482-6.601 3.482s-4.426-1.768-4.252-3.96c0 0-3.183 4.15-6.814 4.15-3.63 0-4.532-2.026-4.532-4.453 0-2.427 1.182-5.552 2.865-8.365 1.675-2.814 2.19-3.656 2.706-4.482 1.076-1.714 1.19-3.216-2.835-.236 0 0-3.327 2.298-5.343 5.514-2.017 3.208-3.237 5.104-4.503 8.358-1.273 3.246-1.955 4.558-2.933 2.578-.977-1.979-.599-4.36.16-5.96.712-1.578 1.637-3.224 1.637-3.224z" data-color="1"></path>
        <path fill="#F00C27" d="M55.346 12.472c1.061-.075 1.887-1.35 1.963-2.457.114-1.668-1.425-3.405-2.69-3.193-.993.167-1.676 1.525-1.676 2.64-.007 1.456 1.13 3.101 2.403 3.01z" data-color="1"></path>
        <path fill="#0772CD" d="M93.932 7.702h-.553c-5.806 0-10.513 4.71-10.513 10.512v4.247c0 5.81 4.707 10.519 10.505 10.519h.554c5.805 0 10.512-4.71 10.512-10.512v-4.24c.008-5.816-4.7-10.526-10.505-10.526zm6.655 14.88a6.808 6.808 0 0 1-6.806 6.81 6.808 6.808 0 0 1-6.807-6.81v-4.368a6.808 6.808 0 0 1 6.807-6.811 6.808 6.808 0 0 1 6.806 6.81v4.37z" data-color="2"></path>
        <path fill="#0772CD" d="M123.036 24.418c-.591 2.608-2.857 4.77-5.563 4.96-3.608.257-6.617-2.602-6.617-6.159v-5.521c0-3.17 2.335-5.931 5.48-6.265a6.165 6.165 0 0 1 6.533 4.194c.129.38.311 1.48.91 1.48h1.917c.645 0 1.16-.516 1.046-1.153-.864-4.695-4.972-8.252-9.906-8.252-5.57 0-10.08 4.512-10.08 10.087V22.9c0 5.574 4.51 10.087 10.08 10.087 5.109 0 9.338-3.808 9.99-8.745.083-.614-.356-1.1-.97-1.1h-1.835c-.674.008-.947 1.092-.985 1.274z" data-color="2"></path>
        <path fill="#0772CD" d="M70.883 8.013H61.81a.772.772 0 0 0-.774.773l-.007 23.17c0 .425.34.774.773.774h9.072c5.245 0 9.505-4.255 9.505-9.503V17.53a9.494 9.494 0 0 0-9.497-9.518zm5.563 14.69a5.91 5.91 0 0 1-5.912 5.909h-5.116a.272.272 0 0 1-.273-.273l.008-15.897c0-.152.121-.273.273-.273h5.116a5.91 5.91 0 0 1 5.904 5.916v4.618z" data-color="2"></path>
    </g>
</svg>
